<svg xmlns="http://www.w3.org/2000/svg" version="1.1" xmlns:xlink="http://www.w3.org/1999/xlink" xmlns:svgjs="http://svgjs.dev/svgjs" width="1440" height="560" preserveAspectRatio="none" viewBox="0 0 1440 560">
    <g mask="url(&quot;#SvgjsMask1101&quot;)" fill="none">
        <rect width="1440" height="560" x="0" y="0" fill="rgba(50, 50, 50, 1)"></rect>
        <path d="M -741.2128019235482,256 C -453.21,273.8 122.79,379 698.7871980764518,345 C 1274.79,311 1990.54,75.2 2138.7871980764517,86 C 2287.03,96.8 1579.76,336.4 1440,399" stroke="rgba(255, 255, 255, 0.58)" stroke-width="2"></path>
        <path d="M -1999.9987181255933,97 C -1712,162 -1136,393 -559.9987181255934,422 C 16,451 480,269.2 880.0012818744066,242 C 1280,214.8 1328,277.2 1440,286" stroke="rgba(255, 255, 255, 0.58)" stroke-width="2"></path>
        <path d="M -884.4928179284968,66 C -596.49,149.6 -20.49,458 555.5071820715032,484 C 1131.51,510 1818.61,217.4 1995.5071820715032,196 C 2172.41,174.6 1551.1,340.8 1440,377" stroke="rgba(255, 255, 255, 0.58)" stroke-width="2"></path>
        <path d="M -1023.0035672785752,250 C -735,276.8 -159,388.6 416.9964327214247,384 C 993,379.4 1652.4,242.8 1856.9964327214248,227 C 2061.6,211.2 1523.4,289.4 1440,305" stroke="rgba(255, 255, 255, 0.58)" stroke-width="2"></path>
    </g>
    <defs>
        <mask id="SvgjsMask1101">
            <rect width="1440" height="560" fill="#ffffff60"></rect>
        </mask>
    </defs>
</svg>